<?xml version="1.0" encoding="utf-8"?>
<!-- Generator: Adobe Illustrator 27.1.0, SVG Export Plug-In . SVG Version: 6.00 Build 0)  -->
<svg version="1.1" id="Capa_1" xmlns="http://www.w3.org/2000/svg" xmlns:xlink="http://www.w3.org/1999/xlink" x="0px" y="0px"
	 viewBox="0 0 1000 1000" style="enable-background:new 0 0 1000 1000;" xml:space="preserve">
<style type="text/css">
	.st0{fill:#929191;}
	.st1{fill:#199BD7;}
</style>
<path class="st0" d="M899.9,496.5c0,208.3-159.1,379.4-362.5,398.3v-31.5c186-18.8,331.2-175.9,331.2-366.8
	c0-65.8-17.2-127.6-47.4-181.1l24.8-19.8C880.3,354.6,899.9,423.3,899.9,496.5L899.9,496.5z"/>
<path class="st0" d="M447.4,861.5v31.6c-65.2-8.6-125.6-32.9-177-69l21.8-23C337.8,832.1,390.5,853.3,447.4,861.5L447.4,861.5z"/>
<path class="st0" d="M447.4,99.8v31.7c-178.7,25.6-316,179.2-316,365c0,66.7,17.7,129.4,48.8,183.4c8.4,14.7,17.9,28.8,28.2,42.1
	l-21.8,23c-11.4-14.3-21.8-29.5-31.2-45.3c-35.2-59.5-55.3-129-55.3-203.1C100.1,293.4,251.4,125.6,447.4,99.8z"/>
<path class="st0" d="M774.2,205.3l-24.8,19.8c-12.6-11.6-25.9-22.2-40-32c-49.8-34.5-108.5-57-172-63.4V98.1
	c71.8,6.7,138.1,32.4,193.8,72C746.4,180.8,760.7,192.6,774.2,205.3L774.2,205.3z"/>
<path class="st0" d="M661.9,587.5h111.6c-34.2,103.3-125.2,180.8-235.9,195.4c-12.5,1.7-25.2,2.5-38.2,2.5
	c-17.8,0-35.2-1.6-52.1-4.7c-35.9-6.5-69.5-19.7-99.4-38.2c-11.3-7-22.1-14.7-32.2-23.1c-19.6-16.2-37.1-35-51.9-55.8
	c-7.6-10.8-14.6-22.1-20.7-33.9c-20.7-39.8-32.4-85-32.4-133c0-141.6,102-259.4,236.5-284c16.9-3.1,34.3-4.7,52.1-4.7
	c12.9,0,25.7,0.9,38.2,2.5c42.2,5.6,81.5,20.2,115.9,42c11.3,7.2,22.1,15.1,32.3,23.7c19.4,16.4,36.5,35.2,51,56.1
	c7.6,11,14.5,22.5,20.5,34.4c6.6,13,12.2,26.6,16.8,40.7H662.7c-14.4-26.2-35-48.6-59.7-65.1c-7.2-4.8-14.7-9.1-22.5-12.9
	c-13.5-6.5-27.8-11.4-42.9-14.5c-12.1-2.5-24.7-3.8-37.6-3.8c-18.3,0-36,2.7-52.7,7.6c-76.8,22.7-132.9,93.8-132.9,178
	c0,23.4,4.3,45.7,12.2,66.3c3,8,6.6,15.6,10.7,23c14.8,27,36.2,49.9,62,66.6c7.1,4.6,14.5,8.7,22.2,12.3c8.3,3.9,16.9,7.2,25.8,9.8
	c16.7,5,34.4,7.6,52.7,7.6c12.9,0,25.5-1.3,37.6-3.8C591,667.5,636,633.6,661.9,587.5L661.9,587.5z"/>
<path class="st1" d="M848.4,257.3c0,10.3-3.2,19.8-8.8,27.6c-6.1,8.7-15.1,15.2-25.6,18.3c-4.3,1.2-8.8,1.9-13.5,1.9
	c-10.9,0-20.9-3.6-29-9.8c-11.5-8.7-18.9-22.5-18.9-38.1c0-8.5,2.2-16.5,6.1-23.4c5.2-9.3,13.5-16.7,23.5-20.8
	c5.6-2.3,11.8-3.6,18.2-3.6c14.6,0,27.7,6.6,36.5,16.9C844.1,234.7,848.4,245.5,848.4,257.3L848.4,257.3z"/>
<path class="st1" d="M278,782.1c0,2.8-0.2,5.6-0.7,8.3c-1.9,10.9-7.5,20.6-15.5,27.6c-8.4,7.5-19.5,12-31.6,12
	c-13.6,0-25.9-5.7-34.6-14.8c-8.2-8.6-13.2-20.2-13.2-33c0-11.2,3.8-21.4,10.2-29.6c6.6-8.4,15.9-14.5,26.6-17
	c3.5-0.8,7.2-1.3,11-1.3c16.6,0,31.3,8.5,39.8,21.4C275,763.2,278,772.3,278,782.1L278,782.1z"/>
<rect x="463.4" y="66.5" class="st1" width="58" height="90"/>
<rect x="464.4" y="843.5" class="st1" width="58" height="90"/>
</svg>
